<svg width="162" height="64" viewBox="0 0 162 64" fill="none" xmlns="http://www.w3.org/2000/svg">
<path d="M10.1489 63.8489H8.80055L7.80108 61.1231H3.03092L2.03145 63.8489H0.789062L4.71183 53.2485H6.24131L10.1489 63.8489ZM3.36344 60.0328H7.45215L5.4078 54.5805L3.36344 60.0328Z" fill="#575756"/>
<path d="M16.9358 53.2485H20.9185C22.978 53.2485 24.3112 54.2625 24.3112 56.5353C24.3112 58.8213 22.978 59.8365 20.9185 59.8365H18.1927V63.8489H16.9358V53.2485ZM18.1927 58.7462H20.8882C22.1899 58.7462 23.0234 58.0944 23.0234 56.5353C23.0234 54.99 22.1754 54.3395 20.8882 54.3395H18.1927V58.7462Z" fill="#575756"/>
<path d="M34.1392 60.1998C34.1392 62.6373 32.5788 64.0002 30.0196 64.0002C27.4906 64.0002 25.9308 62.6373 25.9308 60.1998V56.8986C25.9308 54.4447 27.4912 53.0969 30.0505 53.0969C32.5794 53.0969 34.1392 54.4453 34.1392 56.8986V60.1998ZM32.8823 56.8986C32.8823 55.1722 31.8216 54.1873 30.0505 54.1873C28.2478 54.1873 27.1877 55.1722 27.1877 56.8986V60.1998C27.1877 61.9262 28.2478 62.9099 30.0196 62.9099C31.8216 62.9099 32.8823 61.9262 32.8823 60.1998V56.8986Z" fill="#575756"/>
<path d="M36.6523 53.2485H40.8622C42.9223 53.2485 44.2549 54.2625 44.2549 56.5353C44.2549 58.2458 43.5129 59.2453 42.2705 59.6397L44.33 63.8495H42.8763L40.9833 59.8372H37.9092V63.8495H36.6523V53.2485ZM37.9092 58.7462H40.8319C42.1336 58.7462 42.9671 58.0944 42.9671 56.5353C42.9671 54.99 42.1191 54.3395 40.8319 54.3395H37.9092V58.7462Z" fill="#575756"/>
<path d="M51.2045 59.2755L49.1904 58.8969C47.5398 58.5789 46.5555 57.6696 46.5555 56.0796C46.5555 54.1261 47.9184 53.0957 50.3111 53.0957C52.7037 53.0957 54.0666 54.1557 54.0666 56.291V56.4279H52.8255V56.291C52.8255 54.8971 51.9472 54.186 50.3117 54.186C48.6762 54.186 47.8433 54.8069 47.8433 56.0039C47.8433 56.9876 48.4793 57.5479 49.4939 57.7454L51.4929 58.1239C53.1889 58.4419 54.1436 59.3354 54.1436 60.9248C54.1436 62.9692 52.7043 63.9996 50.2959 63.9996C47.9033 63.9996 46.4646 62.925 46.4646 60.8043V60.6687H47.7215V60.8043C47.7215 62.1981 48.6604 62.9092 50.2959 62.9092C51.9472 62.9092 52.8558 62.2884 52.8558 61.0018C52.8558 60.0175 52.2197 59.473 51.2045 59.2755Z" fill="#575756"/>
<path d="M64.3958 60.4415V60.4869C64.3958 62.7288 62.8657 64.0002 60.4124 64.0002C57.8986 64.0002 56.3389 62.6373 56.3389 60.1998V56.8986C56.3389 54.4447 57.8986 53.0969 60.4276 53.0969C62.8657 53.0969 64.3958 54.3538 64.3958 56.5957V56.6563H63.1389V56.5957C63.1389 55.0813 62.1085 54.1879 60.4276 54.1879C58.6552 54.1879 57.5958 55.1728 57.5958 56.8992V60.2004C57.5958 61.9268 58.6558 62.9105 60.4124 62.9105C62.1085 62.9105 63.1389 62.017 63.1389 60.4875V60.4415H64.3958Z" fill="#575756"/>
<path d="M73.4811 59.0787H68.0894V63.8495H66.8325V53.2485H68.0894V57.9884H73.4811V53.2485H74.7374V63.8495H73.4811V59.0787Z" fill="#575756"/>
<path d="M77.4019 53.2485H84.248V54.3395H78.6595V57.9884H83.4915V59.0794H78.6595V62.7592H84.248V63.8502H77.4019V53.2485Z" fill="#575756"/>
<path d="M99.7632 60.4415V60.4869C99.7632 62.7288 98.2337 64.0002 95.7804 64.0002C93.2666 64.0002 91.7062 62.6373 91.7062 60.1998V56.8986C91.7062 54.4447 93.2667 53.0969 95.795 53.0969C98.2337 53.0969 99.7632 54.3538 99.7632 56.5957V56.6563H98.5063V56.5957C98.5063 55.0813 97.4759 54.1879 95.795 54.1879C94.0226 54.1879 92.9632 55.1728 92.9632 56.8992V60.2004C92.9632 61.9268 94.0232 62.9105 95.7804 62.9105C97.4765 62.9105 98.5063 62.017 98.5063 60.4875V60.4415H99.7632Z" fill="#575756"/>
<path d="M109.941 60.1998C109.941 62.6373 108.382 64.0002 105.823 64.0002C103.293 64.0002 101.734 62.6373 101.734 60.1998V56.8986C101.734 54.4447 103.293 53.0969 105.853 53.0969C108.383 53.0969 109.941 54.4453 109.941 56.8986V60.1998ZM108.684 56.8986C108.684 55.1722 107.624 54.1873 105.853 54.1873C104.051 54.1873 102.991 55.1722 102.991 56.8986V60.1998C102.991 61.9262 104.051 62.9099 105.823 62.9099C107.624 62.9099 108.684 61.9262 108.684 60.1998V56.8986Z" fill="#575756"/>
<path d="M120.33 55.7169L117.013 61.9105L113.711 55.7169V63.8495H112.454V53.2485H113.666L117.013 59.5191L120.361 53.2485H121.572V63.8495H120.331L120.33 55.7169Z" fill="#575756"/>
<path d="M124.236 53.2485H128.219C130.278 53.2485 131.612 54.2625 131.612 56.5353C131.612 58.8213 130.278 59.8365 128.219 59.8365H125.493V63.8489H124.236V53.2485ZM125.493 58.7462H128.188C129.49 58.7462 130.324 58.0944 130.324 56.5353C130.324 54.99 129.476 54.3395 128.188 54.3395H125.493V58.7462Z" fill="#575756"/>
<path d="M140.848 63.8483H139.501L138.502 61.1225H133.731L132.73 63.8483H131.489L135.412 53.2473H136.941L140.848 63.8483ZM134.064 60.0322H138.153L136.108 54.5799L134.064 60.0322Z" fill="#575756"/>
<path d="M143.785 55.5358V63.8495H142.528V53.2485H143.71L149.177 61.5471V53.2485H150.434V63.8495H149.253L143.785 55.5358Z" fill="#575756"/>
<path d="M157.294 63.8483H156.052V59.7899L152.098 53.2473H153.598L156.687 58.533L159.807 53.2473H161.231L157.293 59.7899V63.8483H157.294Z" fill="#575756"/>
<path d="M102.297 22.7706V38.8674H95.6891V0H102.297V17.0515H119.065V0H125.673V38.8674H119.065V22.7706H102.297ZM133.062 0H148.387C156.16 0 161.213 3.05707 161.213 11.4516C161.213 19.2182 156.216 22.7858 148.387 22.7858H139.671V38.8668H133.062V0ZM139.67 17.0666H148.165C152.69 17.0666 154.438 15.2462 154.438 11.4522C154.438 7.34454 152.611 5.83399 148.165 5.83399L139.67 5.822V17.0666ZM81.7376 12.2359L71.136 29.1283L60.528 12.2359V38.8674H53.9192V0H60.0049L71.1334 17.7108L82.2253 0H88.3439V38.8674H81.737V12.2359H81.7376Z" fill="#575756"/>
<path fill-rule="evenodd" clip-rule="evenodd" d="M17.6625 15.1265H24.1306L26.618 0.00585938H20.1801L17.6625 15.1265Z" fill="#000099"/>
<path fill-rule="evenodd" clip-rule="evenodd" d="M7.27486 0.00585938H0.807373V38.872H7.27486V0.00585938Z" fill="#000099"/>
<path fill-rule="evenodd" clip-rule="evenodd" d="M39.5386 0.00585938H33.0698V38.872H39.5386V0.00585938Z" fill="#000099"/>
<path fill-rule="evenodd" clip-rule="evenodd" d="M20.1801 38.8723L23.0441 21.6044H16.5766L13.7126 38.8723H20.1801Z" fill="#000099"/>
</svg>
