<svg width="178" height="30" viewBox="0 0 178 30" fill="none" xmlns="http://www.w3.org/2000/svg">
<path d="M72.3102 0.279297C71.7768 0.279297 71.2554 0.437461 70.8119 0.73379C70.3684 1.03012 70.0228 1.4513 69.8187 1.94408C69.6146 2.43685 69.5612 2.97909 69.6652 3.50222C69.7693 4.02535 70.0261 4.50587 70.4033 4.88302C70.7804 5.26018 71.2609 5.51702 71.7841 5.62108C72.3072 5.72514 72.8494 5.67173 73.3422 5.46762C73.835 5.2635 74.2562 4.91785 74.5525 4.47436C74.8488 4.03087 75.007 3.50947 75.007 2.9761C75.007 2.26086 74.7229 1.57492 74.2171 1.06917C73.7114 0.563423 73.0254 0.279297 72.3102 0.279297Z" fill="#273B7D"/>
<path d="M25.4907 6.88646C24.3757 6.84279 23.2637 7.02897 22.2237 7.43342C21.1837 7.83788 20.238 8.45195 19.4455 9.23746C18.653 10.023 18.0305 10.9631 17.6168 11.9995C17.2031 13.0358 17.007 14.1462 17.0408 15.2615C17.0072 16.3775 17.2032 17.4885 17.6167 18.5256C18.0303 19.5628 18.6525 20.5038 19.4448 21.2905C20.2371 22.0772 21.1826 22.6927 22.2226 23.0988C23.2626 23.505 24.375 23.6931 25.4907 23.6516C26.6096 23.6972 27.7259 23.5122 28.7703 23.1081C29.8146 22.704 30.7647 22.0894 31.5614 21.3025C32.3581 20.5156 32.9845 19.5733 33.4015 18.534C33.8186 17.4948 34.0174 16.3809 33.9857 15.2615C34.0175 14.1428 33.8187 13.0295 33.4015 11.991C32.9843 10.9526 32.3577 10.0111 31.5607 9.22541C30.7637 8.43968 29.8135 7.82652 28.7692 7.42411C27.7249 7.02171 26.6089 6.83869 25.4907 6.88646ZM25.4907 19.7412C24.9296 19.7281 24.3774 19.5983 23.8692 19.3602C23.3609 19.1221 22.9078 18.7808 22.5386 18.358C22.1694 17.9353 21.8922 17.4403 21.7247 16.9047C21.5571 16.369 21.5029 15.8043 21.5654 15.2465C21.5062 14.6927 21.5642 14.1326 21.7357 13.6027C21.9071 13.0728 22.1881 12.5848 22.5604 12.1706C22.9327 11.7564 23.3881 11.4251 23.8968 11.1984C24.4055 10.9716 24.9562 10.8544 25.5132 10.8544C26.0702 10.8544 26.6209 10.9716 27.1296 11.1984C27.6384 11.4251 28.0937 11.7564 28.466 12.1706C28.8383 12.5848 29.1194 13.0728 29.2908 13.6027C29.4622 14.1326 29.5202 14.6927 29.461 15.2465C29.531 15.81 29.4806 16.382 29.3132 16.9245C29.1458 17.4671 28.8653 17.968 28.4901 18.3942C28.1148 18.8204 27.6535 19.1622 27.1365 19.3969C26.6195 19.6317 26.0586 19.7542 25.4907 19.7562V19.7412Z" fill="#273B7D"/>
<path d="M64.4295 15.696C64.2541 15.3701 64.0376 15.0679 63.7853 14.7971L63.6355 14.6323L63.7853 14.4824C64.0368 14.2214 64.2672 13.9408 64.4745 13.6434L68.7894 7.21607H63.5456L60.2945 12.2651C60.1583 12.4207 59.986 12.5404 59.7926 12.6135C59.5992 12.6867 59.3908 12.7111 59.1858 12.6846H58.4367V3.1409C58.4367 1.23816 57.2531 0.983461 55.9796 0.983461H53.7922V23.4568H58.4367V16.7597H58.8711C59.4105 16.7597 59.7701 16.7597 59.9349 17.1193L62.4968 21.9586C62.728 22.4797 63.1255 22.9095 63.6271 23.1806C64.1286 23.4517 64.7059 23.5489 65.2685 23.4568H68.8343L66.1525 19.0221L64.4295 15.696Z" fill="#273B7D"/>
<path d="M87.0078 6.84151C86.1289 6.82023 85.2553 6.98244 84.4427 7.3178C83.6301 7.65316 82.8964 8.1543 82.2884 8.7892L82.0037 9.07386L81.8988 8.68433C81.7532 8.19612 81.4372 7.77639 81.0083 7.50145C80.5794 7.22651 80.066 7.11461 79.5616 7.1861H77.4641V23.4118H82.0936V15.9207C82.0805 15.2603 82.1767 14.6022 82.3783 13.9731C82.5936 13.1488 83.0802 12.4212 83.7598 11.9074C84.4393 11.3937 85.2721 11.1239 86.1238 11.1414C87.622 11.1414 88.1164 11.8905 88.1164 13.8682V20.9548C88.0623 21.2897 88.0884 21.6327 88.1927 21.9556C88.297 22.2784 88.4765 22.5719 88.7165 22.8118C88.9564 23.0518 89.2498 23.2313 89.5727 23.3356C89.8956 23.4399 90.2386 23.466 90.5735 23.4118H92.7759V13.1041C92.7909 9.01393 90.7833 6.84151 87.0078 6.84151Z" fill="#273B7D"/>
<path d="M72.3851 7.21607H70.1827V23.4268H74.7823V9.67315C74.8341 9.34392 74.8084 9.00714 74.7072 8.68959C74.606 8.37204 74.4321 8.08248 74.1994 7.84392C73.9667 7.60536 73.6815 7.42439 73.3665 7.3154C73.0516 7.20641 72.7155 7.17239 72.3851 7.21607Z" fill="#273B7D"/>
<path d="M43.6792 6.88646C42.5605 6.83644 41.4435 7.01792 40.3982 7.41953C39.3529 7.82113 38.4017 8.43422 37.6043 9.2204C36.8068 10.0066 36.1803 10.9489 35.7639 11.9884C35.3475 13.0279 35.1501 14.1422 35.1842 15.2615C35.1482 16.3827 35.3439 17.4993 35.7592 18.5413C36.1746 19.5833 36.8005 20.5284 37.5979 21.3174C38.3954 22.1064 39.347 22.7223 40.3935 23.1265C41.4399 23.5307 42.5584 23.7146 43.6792 23.6665C44.7956 23.706 45.9083 23.5159 46.9484 23.1081C47.9885 22.7002 48.9338 22.0833 49.7258 21.2955C50.5179 20.5076 51.1399 19.5656 51.5532 18.5277C51.9666 17.4899 52.1626 16.3782 52.1291 15.2615C52.1607 14.1468 51.9631 13.0374 51.5486 12.002C51.1341 10.9667 50.5116 10.0275 49.7195 9.2424C48.9274 8.45735 47.9827 7.84319 46.9437 7.43796C45.9047 7.03272 44.7936 6.84501 43.6792 6.88646ZM43.6792 19.7562C43.1168 19.7451 42.5629 19.6168 42.0529 19.3796C41.5428 19.1424 41.0879 18.8014 40.7171 18.3784C40.3463 17.9555 40.0678 17.4598 39.8993 16.9231C39.7309 16.3864 39.6762 15.8205 39.7388 15.2615C39.6797 14.7077 39.7377 14.1476 39.9091 13.6177C40.0805 13.0878 40.3615 12.5998 40.7339 12.1856C41.1062 11.7714 41.5615 11.4401 42.0702 11.2133C42.5789 10.9866 43.1297 10.8694 43.6867 10.8694C44.2436 10.8694 44.7944 10.9866 45.3031 11.2133C45.8118 11.4401 46.2671 11.7714 46.6395 12.1856C47.0118 12.5998 47.2928 13.0878 47.4642 13.6177C47.6356 14.1476 47.6936 14.7077 47.6345 15.2615C47.702 15.8226 47.6503 16.3916 47.4827 16.9314C47.3152 17.4711 47.0356 17.9694 46.6623 18.3937C46.2889 18.8179 45.8302 19.1586 45.3162 19.3934C44.8021 19.6282 44.2443 19.7518 43.6792 19.7562Z" fill="#273B7D"/>
<path d="M13.1004 11.9205L12.4113 11.5309L13.0106 11.0216C13.6108 10.4972 14.0874 9.84637 14.406 9.11583C14.7247 8.38529 14.8774 7.59321 14.8534 6.79656C14.8534 3.27574 12.1266 0.998444 7.88663 0.998444H2.50801C1.91114 1.02071 1.34475 1.26779 0.922402 1.69013C0.500056 2.11248 0.252979 2.67887 0.230713 3.27574V23.3369H7.97652C12.6959 23.3369 15.7223 20.775 15.7223 16.8047C15.7634 15.8303 15.5417 14.8628 15.0804 14.0035C14.6191 13.1442 13.9353 12.4247 13.1004 11.9205ZM4.53061 6.27219C4.53061 5.23841 4.9651 4.77396 5.93894 4.68407H7.85667C8.20828 4.65248 8.56255 4.69798 8.89477 4.81739C9.227 4.9368 9.52917 5.12724 9.78022 5.37544C10.0313 5.62364 10.2252 5.92362 10.3484 6.25446C10.4716 6.5853 10.5211 6.93903 10.4935 7.29098C10.5256 7.64434 10.4822 8.00049 10.3661 8.33577C10.25 8.67106 10.0639 8.97782 9.82021 9.2357C9.5765 9.49358 9.28073 9.69667 8.95253 9.8315C8.62433 9.96634 8.2712 10.0298 7.91659 10.0177H4.53061V6.27219ZM8.29115 19.5914H4.53061V15.0967C4.53061 14.1379 4.90517 13.5985 5.72919 13.5985H8.29115C8.6915 13.572 9.09289 13.6314 9.46844 13.7726C9.844 13.9138 10.185 14.1336 10.4688 14.4173C10.7525 14.701 10.9723 15.0421 11.1135 15.4176C11.2547 15.7932 11.3141 16.1946 11.2876 16.5949C11.3121 16.9935 11.2511 17.3926 11.1088 17.7657C10.9665 18.1387 10.746 18.477 10.4623 18.7579C10.1786 19.0388 9.83805 19.2558 9.4636 19.3944C9.08915 19.533 8.6894 19.5899 8.29115 19.5614V19.5914Z" fill="#273B7D"/>
<path d="M108.103 7.17112C107.727 7.14034 107.35 7.21693 107.016 7.39197C106.681 7.56702 106.404 7.83333 106.215 8.15995L106.08 8.41464L105.87 8.21988C104.672 7.24536 103.158 6.74426 101.615 6.81155C97.3005 6.81155 94.394 10.0627 94.394 14.887C94.394 19.7112 97.3904 23.0822 101.705 23.0822C102.973 23.1439 104.225 22.7742 105.256 22.0335L105.616 21.7638V22.2133C105.616 24.3857 104.222 25.5843 101.675 25.5843C100.616 25.5664 99.5673 25.3688 98.574 25C98.3866 24.9091 98.181 24.8618 97.9727 24.8618C97.7644 24.8617 97.5588 24.9089 97.3714 24.9998C97.1839 25.0906 97.0195 25.2227 96.8905 25.3863C96.7614 25.5498 96.6711 25.7404 96.6263 25.9438L96.2518 26.8428L95.7274 28.1762L96.057 28.341C97.8076 29.2319 99.7412 29.7038 101.705 29.7194C105.646 29.7194 110.23 27.6968 110.23 22.0335V7.17112H108.103ZM102.529 19.037C99.9973 19.037 99.1134 16.7597 99.1134 14.7671C99.1134 13.8532 99.3531 10.8867 102.305 10.8867C103.803 10.8867 105.721 11.3062 105.721 14.9169C105.721 18.5276 103.968 19.037 102.529 19.037Z" fill="#273B7D"/>
<path d="M171.792 6.90066C170.841 6.8999 169.902 7.11213 169.044 7.52176C168.186 7.93139 167.43 8.52802 166.833 9.26785L166.503 9.70234L166.234 9.26785C165.806 8.49817 165.167 7.8674 164.391 7.45044C163.616 7.03348 162.737 6.84787 161.859 6.91564C161.049 6.91731 160.247 7.08578 159.505 7.41055C158.763 7.73533 158.095 8.20945 157.544 8.8034L157.11 9.28284L156.93 8.65358C156.779 8.19373 156.471 7.80175 156.06 7.54681C155.649 7.29188 155.161 7.19038 154.682 7.26023H152.735V23.4111H157.229V16.2795C157.232 15.6438 157.307 15.0104 157.454 14.3918C157.844 12.6688 159.042 10.7661 160.945 11.0058C162.159 11.1256 162.743 12.0545 162.743 13.8374V23.4111H167.237V16.2795C167.221 15.621 167.307 14.9639 167.492 14.3318C167.601 13.4677 168.003 12.6668 168.629 12.0618C169.256 11.4569 170.071 11.0843 170.938 11.0058C172.286 11.0058 172.796 11.7699 172.796 13.8374V21.0439C172.796 22.6769 173.515 23.4111 175.148 23.4111H177.231V13.1033C177.171 8.98319 175.358 6.90066 171.792 6.90066Z" fill="#499FDD"/>
<path d="M131.655 17.8077C130.46 19.0165 128.857 19.7374 127.16 19.8303C126.563 19.8558 125.967 19.7569 125.41 19.54C124.854 19.3232 124.348 18.993 123.925 18.5704C123.503 18.1479 123.173 17.6422 122.956 17.0853C122.739 16.5285 122.64 15.9327 122.665 15.3357C122.632 14.7507 122.72 14.1652 122.924 13.6158C123.128 13.0665 123.443 12.5651 123.849 12.1432C124.256 11.7212 124.745 11.3877 125.286 11.1637C125.828 10.9396 126.409 10.8297 126.995 10.841C127.834 10.841 128.778 11.1406 128.913 11.635V11.7249C129.003 12.0568 129.197 12.351 129.467 12.5641C129.736 12.7772 130.068 12.898 130.411 12.9085H132.823V10.7661C132.823 7.97938 129.273 6.97557 126.83 6.97557C125.69 6.91396 124.548 7.08721 123.477 7.4846C122.406 7.88199 121.428 8.49505 120.604 9.28581C119.779 10.0766 119.126 11.0282 118.684 12.0817C118.243 13.1353 118.022 14.2683 118.036 15.4106C118.014 16.5473 118.226 17.6765 118.659 18.7277C119.092 19.779 119.737 20.7298 120.554 21.521C121.37 22.3123 122.341 22.927 123.405 23.3269C124.47 23.7268 125.605 23.9033 126.741 23.8456C128.011 23.8561 129.27 23.6033 130.438 23.103C131.607 22.6028 132.658 21.866 133.527 20.939L133.647 20.7892L131.73 17.613L131.655 17.8077Z" fill="#499FDD"/>
<path d="M142.667 6.88568C141.551 6.84213 140.438 7.02828 139.397 7.43257C138.357 7.83687 137.41 8.45069 136.616 9.23597C135.823 10.0212 135.199 10.9612 134.783 11.9976C134.368 13.034 134.17 14.1447 134.202 15.2607C134.202 17.5098 135.095 19.6667 136.685 21.257C138.276 22.8473 140.433 23.7407 142.682 23.7407C144.931 23.7407 147.088 22.8473 148.678 21.257C150.268 19.6667 151.162 17.5098 151.162 15.2607C151.191 14.1426 150.991 13.0303 150.573 11.9929C150.155 10.9554 149.528 10.0149 148.732 9.2296C147.935 8.44433 146.986 7.83108 145.943 7.42788C144.899 7.02468 143.784 6.84013 142.667 6.88568ZM142.667 19.7404C142.105 19.7296 141.551 19.6013 141.042 19.3639C140.533 19.1266 140.079 18.7853 139.709 18.362C139.339 17.9388 139.062 17.4429 138.896 16.9062C138.729 16.3695 138.676 15.804 138.741 15.2458C138.672 14.6875 138.723 14.121 138.889 13.5837C139.056 13.0464 139.334 12.5507 139.707 12.1292C140.08 11.7078 140.537 11.3704 141.05 11.1392C141.563 10.9081 142.119 10.7886 142.682 10.7886C143.244 10.7886 143.8 10.9081 144.313 11.1392C144.826 11.3704 145.284 11.7078 145.656 12.1292C146.029 12.5507 146.308 13.0464 146.474 13.5837C146.64 14.121 146.691 14.6875 146.622 15.2458C146.694 15.8084 146.646 16.38 146.48 16.9226C146.315 17.4652 146.036 17.9664 145.662 18.3929C145.288 18.8194 144.827 19.1614 144.311 19.3963C143.794 19.6313 143.234 19.7537 142.667 19.7554V19.7404Z" fill="#499FDD"/>
<path d="M114.755 18.2572C114.221 18.2542 113.698 18.4099 113.252 18.7044C112.807 18.9989 112.459 19.419 112.253 19.9115C112.046 20.4041 111.991 20.9468 112.093 21.4709C112.195 21.995 112.451 22.4769 112.828 22.8556C113.204 23.2342 113.685 23.4925 114.208 23.5978C114.732 23.7031 115.275 23.6506 115.768 23.4469C116.262 23.2432 116.684 22.8976 116.981 22.4538C117.278 22.01 117.437 21.488 117.437 20.954C117.437 20.2413 117.155 19.5577 116.652 19.0523C116.149 18.547 115.467 18.2611 114.755 18.2572Z" fill="#499FDD"/>
</svg>
