<svg width="296" height="340" viewBox="0 0 296 340" fill="none" xmlns="http://www.w3.org/2000/svg">
<path d="M269.252 198.567C269.264 198.572 269.279 198.585 269.3 198.585C269.312 198.589 269.336 198.598 269.348 198.603L269.252 198.567ZM269.3 198.585C267.494 197.864 266.69 197.829 266.653 197.921L256.223 222.212C256.178 222.308 256.23 222.418 256.329 222.462L260.794 224.259C260.893 224.303 261.008 224.255 261.054 224.159L271.484 199.868C271.517 199.768 270.977 199.266 269.3 198.585Z" fill="#D0D1D6"/>
<path d="M265.989 208.835C266.001 208.84 266.013 208.844 266.037 208.853C266.073 208.866 266.109 208.88 266.148 208.902L265.989 208.835ZM266.037 208.853C262.501 207.446 261.65 207.477 261.568 207.665L239.759 258.464C239.676 258.652 239.756 258.863 239.927 258.933L247.557 262C247.728 262.071 247.935 261.967 248.017 261.779L269.826 210.979C269.905 210.783 268.948 210.021 266.037 208.853Z" fill="#F9F9F9"/>
<path d="M249.423 261.471C249.166 262.094 246.216 269.34 242.053 273.989C235.918 280.829 225.651 285.387 219.309 282.75C212.541 279.935 210.441 269.558 214.621 259.573C218.79 249.585 227.659 243.775 234.426 246.59C237.962 248.063 240.218 251.595 240.975 256.061C241.663 260.14 251.416 256.701 249.423 261.471Z" fill="#F9F9F9"/>
<path d="M230.005 257.41C228.243 256.697 226.136 257.695 225.304 259.639L221.686 268.062C220.851 269.997 221.607 272.145 223.377 272.853C225.147 273.562 227.246 272.569 228.078 270.625L231.695 262.202C232.528 260.257 231.766 258.122 230.005 257.41Z" fill="#666666"/>
<path d="M103.022 -432.076C111.679 -411.447 122.475 -391.919 135.231 -374.023C147.712 -356.49 162.193 -341.276 177.213 -326.401C191.679 -312.074 206.378 -297.49 216.946 -279.344C227.861 -260.602 232.401 -238.982 233.78 -217.029C235.158 -195.077 233.833 -173.073 233.999 -151.104C234.162 -128.834 236.71 -107.055 241.864 -85.502C252.186 -42.2932 270.109 -1.78624 280.327 41.447C285.682 64.0961 288.568 87.324 287.641 110.745C286.658 135.544 281.83 160.14 273.339 183.162C271.268 188.777 268.973 194.288 266.489 199.689C265.702 201.409 268.204 202.584 268.99 200.874C288.994 157.331 295.163 107.287 286.832 59.4463C279.153 15.3538 261.469 -25.509 249.264 -68.1301C243.156 -89.4666 238.537 -111.33 237.247 -133.692C235.953 -156.024 237.353 -178.397 237.081 -200.755C236.815 -222.296 234.929 -244.226 227.245 -264.275C219.703 -283.93 206.796 -300.06 192.877 -314.646C178.165 -330.066 162.42 -344.216 148.819 -360.875C134.739 -378.098 122.538 -397.187 112.605 -417.589C110.11 -422.723 107.763 -427.936 105.544 -433.22C104.819 -434.959 102.29 -433.826 103.022 -432.076Z" fill="#D0D1D6"/>
<path d="M146.938 182.155C146.95 182.17 146.955 182.178 146.967 182.193C146.979 182.207 146.985 182.215 147.003 182.223L146.938 182.155ZM148.442 184.152C148.505 184.079 148.191 183.432 146.967 182.193C145.654 180.87 144.994 180.535 144.938 180.601L129.728 198.511C129.664 198.584 129.681 198.697 129.752 198.773L132.995 202.052C133.066 202.128 133.175 202.128 133.238 202.056L148.442 184.152Z" fill="#D0D1D6"/>
<path d="M140.623 189.698C140.635 189.713 140.64 189.72 140.652 189.735C140.675 189.765 140.706 189.788 140.729 189.818L140.623 189.698ZM143.238 193.051C143.358 192.912 142.76 191.873 140.646 189.728C138.074 187.136 137.354 186.846 137.241 186.978L107.359 222.16C107.239 222.298 107.248 222.51 107.373 222.638L112.918 228.258C113.043 228.386 113.236 228.372 113.356 228.233L143.238 193.051Z" fill="white"/>
<path d="M113.422 236.671C113.829 235.012 116.283 226.792 109.882 219.159C104.047 212.203 95.9729 212.182 89.9994 213.407C88.7088 213.675 86.6281 215.884 86.6281 215.884C86.6281 215.884 83.2827 219.429 81.4598 222.215C79.9076 224.589 79.9954 225.69 79.9954 225.69C79.9954 225.69 79.7392 228.468 80.1191 230.529C80.5049 232.597 80.7972 236.354 83.4933 241.264C85.6819 245.248 88.6121 247.661 91.9985 248.941C95.3907 250.229 98.3867 250.486 102.645 249.111C108.238 247.308 112.636 239.87 113.422 236.671Z" fill="white"/>
<path d="M89.9185 216.849C90.5883 215.739 91.2236 214.907 90.4745 214.166C89.8138 213.522 88.935 214.028 87.1072 215.854C85.7807 217.17 84.0202 219.282 82.2386 221.581C81.3686 222.712 80.1978 224.901 80.849 225.502C81.5176 226.125 82.4477 225.21 83.5748 224.315C85.1044 223.106 88.6614 218.912 89.9185 216.849Z" fill="#CCCCCC"/>
<path d="M84.1968 223.734C85.5928 222.327 88.6678 218.926 89.9174 216.858C90.5864 215.75 90.6409 215.543 90.4839 215.588C89.6281 215.814 89.6172 215.953 87.7859 217.77C86.4611 219.083 85.2883 220.498 83.5079 222.809C82.639 223.937 81.9856 225.173 82.2521 225.283C82.5127 225.386 82.925 225.023 84.1968 223.734Z" fill="#666666"/>
<path d="M105.637 240.241C106.384 239.367 106.349 238.005 105.564 237.205L102.144 233.738C101.36 232.938 100.114 233.005 99.3664 233.879C98.6192 234.753 98.6547 236.115 99.439 236.915L102.859 240.382C103.649 241.189 104.895 241.123 105.637 240.241Z" fill="#666666"/>
<path d="M92.5339 224.223L90.0742 227.127L89.83 226.877L92.0978 224.206L90.703 222.795L90.9018 222.556L92.5339 224.223Z" fill="#D0D1D6"/>
<path d="M144.295 185.15C145.425 186.594 147.512 184.625 146.382 183.182C145.252 181.739 143.165 183.707 144.295 185.15Z" fill="#D0D1D6"/>
<path d="M142.425 187.043C143.555 188.486 145.642 186.518 144.512 185.074C143.376 183.624 141.289 185.592 142.425 187.043Z" fill="#D0D1D6"/>
<path d="M164.24 -474.988C166.776 -452.453 171.656 -430.257 178.855 -408.964C185.893 -388.108 195.479 -368.797 205.672 -349.631C215.489 -331.17 225.457 -312.387 230.502 -291.583C235.712 -270.096 234.052 -247.986 229.286 -226.61C224.521 -205.233 217.166 -184.708 211.24 -163.72C205.23 -142.445 201.626 -120.845 200.569 -98.5947C198.441 -53.9911 204.302 -9.43556 202.067 35.1567C200.897 58.5182 197.216 81.6107 189.847 103.619C182.044 126.923 170.632 148.754 156.167 167.869C152.639 172.531 148.925 177.018 145.063 181.34C143.837 182.716 145.896 184.668 147.118 183.3C178.236 148.46 197.972 102.825 203.281 54.4698C208.174 9.90315 202.638 -34.9124 202.81 -79.5816C202.898 -101.943 204.551 -124.311 209.514 -146.048C214.465 -167.757 221.994 -188.611 227.925 -210.005C233.637 -230.62 237.913 -252.142 236.142 -273.801C234.398 -295.037 226.567 -314.697 217.342 -333.222C207.594 -352.807 196.509 -371.524 188.162 -391.918C179.515 -413.011 173.175 -435.255 169.359 -457.997C168.404 -463.72 167.611 -469.467 166.959 -475.24C166.75 -477.137 164.027 -476.899 164.24 -474.988Z" fill="#D0D1D6"/>
</svg>
