<svg width="118" height="26" viewBox="0 0 118 26" fill="none" xmlns="http://www.w3.org/2000/svg">
<path d="M58.794 9.88184C56.4165 9.88184 54.4787 11.6903 54.4787 14.181C54.4787 16.6566 56.4165 18.4802 58.794 18.4802C61.1726 18.4802 63.1104 16.6566 63.1104 14.181C63.1094 11.6903 61.1716 9.88184 58.794 9.88184ZM58.794 16.788C57.491 16.788 56.368 15.7135 56.368 14.182C56.368 12.6344 57.4921 11.576 58.794 11.576C60.097 11.576 61.2201 12.6344 61.2201 14.182C61.2201 15.7125 60.097 16.788 58.794 16.788ZM49.3789 9.88184C47.0014 9.88184 45.0636 11.6903 45.0636 14.181C45.0636 16.6566 47.0014 18.4802 49.3789 18.4802C51.7575 18.4802 53.6953 16.6566 53.6953 14.181C53.6953 11.6903 51.7575 9.88184 49.3789 9.88184ZM49.3789 16.788C48.0759 16.788 46.9529 15.7135 46.9529 14.182C46.9529 12.6344 48.0769 11.576 49.3789 11.576C50.6819 11.576 51.805 12.6344 51.805 14.182C51.806 15.7125 50.6819 16.788 49.3789 16.788ZM38.1806 11.202V13.0256H42.5455C42.4151 14.0516 42.0735 14.8007 41.5519 15.3213C40.917 15.9561 39.9234 16.6566 38.1806 16.6566C35.4938 16.6566 33.3932 14.4903 33.3932 11.8035C33.3932 9.11662 35.4938 6.95036 38.1806 6.95036C39.6302 6.95036 40.6886 7.52048 41.47 8.25335L42.7568 6.96653C41.6651 5.92434 40.2165 5.12677 38.1806 5.12677C34.5001 5.12677 31.4059 8.12295 31.4059 11.8035C31.4059 15.484 34.5001 18.4802 38.1806 18.4802C40.167 18.4802 41.6661 17.8282 42.8377 16.6071C44.0426 15.4021 44.4176 13.7079 44.4176 12.3402C44.4176 11.9177 44.3853 11.5265 44.3196 11.201H38.1806V11.202ZM83.9806 12.6182C83.6227 11.6579 82.531 9.88184 80.3 9.88184C78.0852 9.88184 76.2445 11.6246 76.2445 14.181C76.2445 16.5909 78.0691 18.4802 80.5113 18.4802C82.4815 18.4802 83.6217 17.2752 84.0948 16.5747L82.629 15.5972C82.1408 16.3139 81.4726 16.786 80.5113 16.786C79.551 16.786 78.8666 16.3463 78.4269 15.483L84.1756 13.1055L83.9806 12.6182ZM78.1176 14.0516C78.0691 12.3898 79.4044 11.5437 80.3657 11.5437C81.1148 11.5437 81.7496 11.9187 81.9619 12.4555L78.1176 14.0516ZM73.4444 18.2204H75.3327V5.58368H73.4444V18.2204ZM70.3491 10.8432H70.2844C69.8609 10.3377 69.0462 9.88184 68.0211 9.88184C65.871 9.88184 63.9009 11.7711 63.9009 14.1982C63.9009 16.6081 65.871 18.4812 68.0211 18.4812C69.0472 18.4812 69.8609 18.0253 70.2844 17.5047H70.3491V18.1234C70.3491 19.768 69.4697 20.6475 68.0535 20.6475C66.8971 20.6475 66.1804 19.8176 65.8872 19.117L64.2426 19.8014C64.7146 20.9406 65.9681 22.3417 68.0535 22.3417C70.2683 22.3417 72.1414 21.0387 72.1414 17.8626V10.1437H70.3502V10.8432H70.3491ZM68.1839 16.788C66.8809 16.788 65.7902 15.6963 65.7902 14.1982C65.7902 12.6829 66.8809 11.576 68.1839 11.576C69.4697 11.576 70.4795 12.6829 70.4795 14.1982C70.4795 15.6963 69.4697 16.788 68.1839 16.788ZM92.8296 5.58368H88.31V18.2204H90.1953V13.433H92.8286C94.919 13.433 96.9751 11.9197 96.9751 9.50883C96.9751 7.09794 94.92 5.58368 92.8296 5.58368ZM92.8781 11.6741H90.1953V7.34257H92.8781C94.2883 7.34257 95.0889 8.51011 95.0889 9.50883C95.0889 10.4873 94.2883 11.6741 92.8781 11.6741ZM104.535 9.8596C103.17 9.8596 101.755 10.4611 101.17 11.7944L102.844 12.4929C103.202 11.7944 103.869 11.5659 104.568 11.5659C105.543 11.5659 106.535 12.1512 106.551 13.1914V13.3218C106.209 13.1267 105.477 12.8346 104.584 12.8346C102.779 12.8346 100.942 13.8262 100.942 15.6791C100.942 17.3703 102.422 18.459 104.079 18.459C105.347 18.459 106.047 17.8898 106.485 17.2227H106.55V18.1982H108.372V13.3531C108.373 11.111 106.697 9.8596 104.535 9.8596ZM104.307 16.785C103.69 16.785 102.828 16.4757 102.828 15.7115C102.828 14.736 103.902 14.362 104.828 14.362C105.656 14.362 106.048 14.5409 106.551 14.7845C106.404 15.9561 105.397 16.785 104.307 16.785ZM115.005 10.1356L112.843 15.6144H112.778L110.534 10.1356H108.502L111.867 17.7928L109.948 22.0526H111.916L117.102 10.1356H115.005ZM98.0163 18.2204H99.9016V5.58368H98.0163V18.2204Z" fill="#6D787E"/>
<path fill-rule="evenodd" clip-rule="evenodd" d="M0.187581 0.829492C0.0667779 1.10081 0 1.43385 0 1.82163V24.1777C0 24.5663 0.0668222 24.8993 0.187701 25.1704L12.3572 12.9991L0.187581 0.829492ZM0.882226 25.8901C1.33389 26.0861 1.92441 26.026 2.56858 25.6607L16.884 17.5259L13.0643 13.7063L0.882226 25.8901ZM17.7865 17.0142L22.2813 14.4604C23.6935 13.6568 23.6935 12.3437 22.2813 11.541L17.7842 8.98567L13.7714 12.9991L17.7865 17.0142ZM16.8825 8.47326L2.56858 0.339725C1.92448 -0.0262967 1.33402 -0.0860893 0.882375 0.110073L13.0643 12.292L16.8825 8.47326Z" fill="#6D787E"/>
</svg>
