<svg width="110" height="24" viewBox="0 0 110 24" fill="none" xmlns="http://www.w3.org/2000/svg">
<path d="M78.4073 6.98094V9.50595H76.8337V11.1618H78.4073V16.7882C78.4073 18.7094 79.2714 19.4779 81.4452 19.4779C81.8273 19.4779 82.1911 19.4322 82.5094 19.3773V17.7397C82.2366 17.7671 82.0637 17.7854 81.7636 17.7854C80.7903 17.7854 80.3628 17.328 80.3628 16.285V11.1618H82.5094V9.50595H80.3628V6.98094H78.4073Z" fill="#6D787E"/>
<path d="M88.0473 19.6151C90.9397 19.6151 92.7134 17.6665 92.7134 14.437C92.7134 11.2259 90.9306 9.26808 88.0473 9.26808C85.1548 9.26808 83.3721 11.2259 83.3721 14.437C83.3721 17.6665 85.1457 19.6151 88.0473 19.6151ZM88.0473 17.8678C86.3464 17.8678 85.3913 16.6144 85.3913 14.437C85.3913 12.278 86.3464 11.0155 88.0473 11.0155C89.7391 11.0155 90.7032 12.278 90.7032 14.437C90.7032 16.6052 89.7391 17.8678 88.0473 17.8678Z" fill="#6D787E"/>
<path d="M94.2309 19.423H96.1865V13.5405C96.1865 12.1407 97.2325 11.1984 98.7151 11.1984C99.0607 11.1984 99.6428 11.2625 99.8065 11.3174V9.37787C99.5973 9.32298 99.2244 9.29553 98.9334 9.29553C97.6418 9.29553 96.5412 10.0091 96.2592 10.988H96.1137V9.4602H94.2309V19.423Z" fill="#6D787E"/>
<path d="M104.662 10.9423C106.108 10.9423 107.054 11.9578 107.1 13.5222H102.097C102.206 11.9669 103.216 10.9423 104.662 10.9423ZM107.091 16.7333C106.727 17.511 105.917 17.9409 104.735 17.9409C103.171 17.9409 102.161 16.834 102.097 15.0866V14.9768H109.092V14.2907C109.092 11.1618 107.427 9.26808 104.671 9.26808C101.879 9.26808 100.105 11.2899 100.105 14.4736C100.105 17.6573 101.843 19.6151 104.68 19.6151C106.945 19.6151 108.528 18.5173 108.974 16.7333H107.091Z" fill="#6D787E"/>
<path d="M65.5829 15.7439C65.7337 18.1903 67.7606 19.7549 70.7774 19.7549C74.0016 19.7549 76.0191 18.1145 76.0191 15.4974C76.0191 13.4397 74.8689 12.3019 72.0784 11.6476L70.5794 11.2778C68.8071 10.8605 68.0906 10.3011 68.0906 9.32443C68.0906 8.09174 69.203 7.28575 70.8717 7.28575C72.4555 7.28575 73.5491 8.07277 73.747 9.33391H75.8022C75.6797 7.02973 73.6622 5.40826 70.9 5.40826C67.9303 5.40826 65.9506 7.02973 65.9506 9.46666C65.9506 11.4769 67.0724 12.6717 69.533 13.2501L71.2865 13.6768C73.0871 14.1035 73.879 14.7293 73.879 15.7723C73.879 16.9861 72.6346 17.8679 70.9377 17.8679C69.1182 17.8679 67.8549 17.043 67.6758 15.7439H65.5829Z" fill="#6D787E"/>
<path d="M45.3251 9.29553C43.979 9.29553 42.8147 9.97252 42.2144 11.1069H42.0689V9.4602H40.186V22.7348H42.1416V17.9135H42.2963C42.8147 18.9656 43.9335 19.5877 45.3433 19.5877C47.8446 19.5877 49.4364 17.6024 49.4364 14.437C49.4364 11.2716 47.8446 9.29553 45.3251 9.29553ZM44.7703 17.822C43.1331 17.822 42.1052 16.5229 42.1052 14.4462C42.1052 12.3603 43.1331 11.0612 44.7794 11.0612C46.4348 11.0612 47.4262 12.3329 47.4262 14.437C47.4262 16.5504 46.4348 17.822 44.7703 17.822Z" fill="#6D787E"/>
<path d="M56.2793 9.29553C54.9331 9.29553 53.7688 9.97252 53.1685 11.1069H53.023V9.4602H51.1402V22.7348H53.0958V17.9135H53.2504C53.7688 18.9656 54.8876 19.5877 56.2975 19.5877C58.7988 19.5877 60.3905 17.6024 60.3905 14.437C60.3905 11.2716 58.7988 9.29553 56.2793 9.29553ZM55.7244 17.822C54.0872 17.822 53.0594 16.5229 53.0594 14.4462C53.0594 12.3603 54.0872 11.0612 55.7335 11.0612C57.3889 11.0612 58.3804 12.3329 58.3804 14.437C58.3804 16.5504 57.3889 17.822 55.7244 17.822Z" fill="#6D787E"/>
<path d="M36.6774 19.423H38.9211L34.0094 5.74014H31.7374L26.8257 19.423H28.9941L30.2479 15.7913H35.433L36.6774 19.423ZM32.765 8.22449H32.9253L34.8956 14.0087H30.7853L32.765 8.22449Z" fill="#6D787E"/>
<path d="M16.2144 12.7631C16.2381 10.9104 17.2273 9.15738 18.7966 8.18699C17.8066 6.76488 16.1484 5.86322 14.4232 5.80893C12.5832 5.61467 10.7993 6.91639 9.86168 6.91639C8.90588 6.91639 7.4622 5.82822 5.90761 5.86039C3.88126 5.92624 1.9922 7.08501 1.00634 8.86687C-1.11287 12.5573 0.467872 17.9809 2.4979 20.964C3.51356 22.4247 4.70058 24.0564 6.25377 23.9985C7.77367 23.9351 8.34132 23.0237 10.176 23.0237C11.9936 23.0237 12.5261 23.9985 14.1108 23.9617C15.7418 23.9351 16.7693 22.4945 17.7493 21.02C18.4791 19.9792 19.0406 18.8288 19.4132 17.6116C17.4965 16.7962 16.2166 14.8562 16.2144 12.7631Z" fill="#6D787E"/>
<path d="M13.2211 3.84713C14.1104 2.77343 14.5485 1.39335 14.4424 0C13.0838 0.143521 11.8289 0.796601 10.9276 1.82911C10.0463 2.83793 9.58767 4.19372 9.67437 5.53382C11.0334 5.54789 12.3695 4.91252 13.2211 3.84713Z" fill="#6D787E"/>
</svg>
