<svg width="147" height="32" viewBox="0 0 147 32" fill="none" xmlns="http://www.w3.org/2000/svg">
<path d="M14.3825 5.9266C13.9498 5.189 13.1424 4.70541 12.18 4.70541C11.0255 4.70541 9.9711 5.40554 9.46404 6.39389C9.28917 6.72808 9.18161 7.09386 9.14755 7.47015L8.85044 10.8618C8.85044 10.8618 9.99849 10.8862 10.5136 10.8862C14.7183 10.8862 14.7249 7.47015 14.7249 7.47015C14.7837 6.93158 14.6633 6.38856 14.3825 5.92656L14.3825 5.9266ZM20.7818 13.0942C20.4297 12.9238 20.0437 12.8369 19.6531 12.8401H3.27168C2.70554 12.8351 2.15055 12.9988 1.67633 13.3107C1.27868 13.5562 0.942378 13.8906 0.693454 14.2882C0.44453 14.6857 0.289661 15.1357 0.240833 15.6033C0.142335 16.7544 0.754304 17.7379 1.71829 18.1563C2.03801 18.2947 2.39487 18.3762 2.784 18.3762H8.19172L7.7186 23.7379C7.68631 24.127 7.72505 24.4836 7.8397 24.819C8.17718 25.8122 9.10564 26.5107 10.2586 26.5107C11.3841 26.5107 12.411 25.8367 12.9342 24.8825C13.1279 24.534 13.2555 24.1563 13.2894 23.7378L13.7625 18.3761H19.1688C19.5595 18.3761 19.9245 18.2947 20.2717 18.1596C21.3067 17.7378 22.0963 16.7544 22.1996 15.6032C22.2519 15.0884 22.1434 14.57 21.8892 14.1204C21.635 13.6709 21.2479 13.3126 20.7819 13.0957L20.7818 13.0942ZM43.8676 15.019C46.146 13.6822 47.4329 11.4482 47.7073 8.36099C47.9414 5.65811 47.1308 3.55762 45.2852 2.11834C43.4815 0.711546 41.2403 0 38.6246 0H29.9987C29.9793 0 29.9599 0.00332567 29.9422 0.00487765C29.3593 0.0111506 28.7898 0.182065 28.2984 0.498222C27.9992 0.687362 27.7316 0.92312 27.5056 1.19672C27.073 1.67921 26.8068 2.28977 26.7466 2.93731L24.4456 29.0575C24.3827 29.7674 24.5732 30.3877 24.985 30.9186C25.1513 31.14 25.3386 31.3386 25.5663 31.4999C26.0071 31.8157 26.5302 31.9786 27.1213 31.9916C27.1423 31.9916 27.1568 31.9997 27.181 31.9997H37.4328C40.3458 31.9997 42.9391 31.2589 45.14 29.7934C47.399 28.2938 48.6714 26.0665 48.9266 23.1827C49.1203 21.0172 48.7005 19.1642 47.6832 17.6891C46.8387 16.4581 45.5566 15.5561 43.8659 15.0188L43.8676 15.019ZM32.132 5.09629H37.3217C38.6813 5.09629 39.7858 5.44799 40.5931 6.13837C41.3843 6.81082 41.7186 7.7487 41.6104 9.00244C41.4748 10.4841 40.971 11.5604 40.1055 12.2068C39.1899 12.8923 38.1323 13.2245 36.876 13.2245H31.4152L32.132 5.09629ZM41.1046 25.8352C39.9839 26.5435 38.5501 26.8968 36.8449 26.8968H30.2133L30.9286 18.7426H37.7911C39.6206 18.7426 41.0125 18.8615 41.8279 19.5861C42.6837 20.3481 43.0099 21.2745 42.9001 22.5446C42.7628 24.0898 42.1751 25.1709 41.1045 25.8352L41.1046 25.8352ZM61.6112 9.7744C59.5234 9.77752 57.4541 10.1694 55.5075 10.9304C53.6603 11.6648 52.6769 12.5945 52.58 13.6919C52.5267 14.2993 52.6882 14.8105 53.058 15.2127C53.4278 15.6133 53.9251 15.8184 54.5339 15.8184C54.8084 15.8184 55.3654 15.7419 57.0012 15.0629C58.3075 14.524 59.5589 14.2488 60.7214 14.2488C61.9405 14.2488 62.7834 14.5777 63.2936 15.2436C63.7393 15.8429 63.9104 16.7693 63.8023 17.9954L63.7926 18.1094C59.8994 18.4431 57.1107 18.956 55.2799 19.6741C52.3492 20.8155 50.7458 22.727 50.5164 25.3469C50.334 27.3985 50.9492 29.0382 52.3411 30.2153C53.7007 31.3714 55.4365 31.9576 57.4919 31.9576C59.6233 31.9576 61.5174 31.5847 63.1338 30.8504C63.5698 31.5717 64.3255 31.9576 65.346 31.9576C66.0968 31.9576 66.7783 31.6905 67.3676 31.1711C67.9376 30.6873 68.2936 29.995 68.3574 29.2465L69.3473 17.9954C69.5653 15.5302 69.1196 13.5878 68.0232 12.215C66.6927 10.5933 64.5354 9.77427 61.611 9.77427L61.6112 9.7744ZM63.0366 26.6916C61.8062 27.3331 60.5564 27.6571 59.3146 27.6571C58.2634 27.6571 57.385 27.4341 56.7101 26.9896C56.09 26.5825 55.8187 26.0143 55.8865 25.2539C56.0722 23.1697 59.9798 22.4419 63.4288 22.209L63.0364 26.6898L63.0366 26.6916ZM82.6383 9.77435C81.0694 9.776 79.5114 10.0373 78.0265 10.5477L78.7176 2.75497C78.7547 2.36643 78.6994 1.97455 78.5561 1.61193C78.2009 0.662677 77.3047 0.00485917 76.1857 0.00485917C75.2281 0.00485917 74.3417 0.481945 73.7797 1.21629C73.4261 1.6657 73.221 2.17696 73.1726 2.75497L70.9023 28.4812C70.757 30.1665 71.524 31.2443 73.1354 31.5912C74.403 31.8322 76.1098 31.9559 78.1991 31.9559C82.7156 31.9559 86.2566 30.6794 88.7254 28.1669C90.5855 26.2944 91.6642 23.8357 91.9242 20.8626C92.2164 17.5296 91.5156 14.8331 89.8476 12.8385C88.136 10.8032 85.7108 9.77414 82.6377 9.77414L82.6383 9.77435ZM84.6281 25.0064C83.2895 26.4881 81.4568 27.2144 79.0218 27.2144C78.0206 27.2144 77.1971 27.1785 76.5658 27.1215L77.6024 15.3738C78.7577 14.8682 80.0036 14.6071 81.263 14.6069C82.8584 14.6069 84.1066 15.1312 85.0672 16.2124C86.0473 17.3635 86.459 18.9332 86.2911 20.8627C86.1409 22.5431 85.5822 23.9369 84.6279 25.0065L84.6281 25.0064ZM105.311 9.7746C103.753 9.7746 102.201 10.0351 100.706 10.548L101.39 2.75522C101.426 2.37208 101.375 1.98586 101.242 1.62523C100.89 0.67272 99.9886 0.00511044 98.86 0.00511044C97.9008 0.00511044 97.0127 0.485448 96.454 1.22304C96.1029 1.66052 95.8902 2.19434 95.8437 2.75522L93.5814 28.4815C93.428 30.1667 94.1999 31.2446 95.8097 31.5914C97.0773 31.8324 98.7809 31.9562 100.878 31.9562C105.387 31.9562 108.929 30.6796 111.402 28.1671C113.265 26.2946 114.34 23.836 114.602 20.8628C114.894 17.5298 114.198 14.8334 112.519 12.8387C110.811 10.8034 108.38 9.77439 105.311 9.77439L105.311 9.7746ZM107.304 25.0067C105.964 26.4884 104.13 27.2146 101.696 27.2146C100.694 27.2146 99.8718 27.1788 99.2421 27.1218L100.277 15.3741C101.432 14.8678 102.678 14.6067 103.938 14.6072C105.536 14.6072 106.78 15.1315 107.737 16.2126C108.722 17.3638 109.134 18.9334 108.964 20.863C108.816 22.5434 108.255 23.9371 107.304 25.0068L107.304 25.0067ZM128.016 9.77485C124.738 9.77485 121.996 10.8023 119.867 12.8343C117.713 14.8859 116.482 17.501 116.211 20.5979C115.92 23.9033 116.679 26.6225 118.47 28.6723C120.311 30.8492 123.067 31.9564 126.647 31.9564C128.959 31.9564 131.139 31.5347 133.135 30.7027C134.79 29.9944 135.676 29.0875 135.773 27.9917C135.807 27.7019 135.782 27.4083 135.701 27.1282C135.621 26.848 135.485 26.5869 135.303 26.3602C134.809 25.7415 134.138 25.4923 133.178 25.7203C132.948 25.7773 132.743 25.8619 132.57 25.958C132.396 26.0583 132.216 26.1475 132.03 26.225C131.764 26.3455 131.535 26.4563 131.355 26.5328C130.049 27.1027 128.707 27.3925 127.367 27.3925C125.413 27.3925 123.992 26.7787 123.007 25.5314C122.378 24.7336 122.009 23.7501 121.916 22.5875H134.288C135.149 22.5875 135.874 22.2945 136.436 21.7116C136.983 21.1466 137.298 20.4269 137.374 19.5672C137.616 16.8252 136.941 14.5181 135.362 12.6926C133.579 10.7583 131.109 9.77481 128.016 9.77481L128.016 9.77485ZM122.259 18.515C122.501 17.4665 122.976 16.5709 123.677 15.8447C124.67 14.8629 125.973 14.3826 127.656 14.3826C129.157 14.3826 130.276 14.8336 131.063 15.7503C131.673 16.5205 131.977 17.4241 131.985 18.5151H122.259L122.259 18.515ZM146.797 2.7551C146.855 2.2193 146.736 1.67925 146.459 1.21805C146.027 0.48533 145.226 0.0049922 144.267 0.0049922C143.119 0.0049922 142.072 0.700242 141.564 1.68372C141.39 2.01628 141.283 2.38052 141.25 2.7551L138.917 29.2466C138.883 29.6084 138.924 29.9733 139.038 30.318C139.372 31.3064 140.299 32 141.447 32C142.568 32 143.587 31.3324 144.112 30.3832C144.302 30.0364 144.426 29.6635 144.462 29.2466L146.797 2.7551Z" fill="#FF790F"/>
</svg>
