<svg width="172" height="50" viewBox="0 0 172 50" fill="none" xmlns="http://www.w3.org/2000/svg">
<path d="M32.9853 18.0465C36.3288 20.4406 40.3401 21.7233 44.4524 21.7134V13.4978C43.6434 13.4989 42.8365 13.4144 42.0453 13.2458V19.7148C37.9337 19.7235 33.9231 18.4421 30.5782 16.0513V32.8162C30.5759 35.5684 29.8263 38.2684 28.4094 40.6279C26.9925 42.9874 24.9615 44.9179 22.5332 46.2134C20.1049 47.5088 17.3704 48.1205 14.6215 47.9833C11.8727 47.846 9.21274 46.9649 6.92554 45.4341C9.03723 47.5913 11.7435 49.0708 14.6993 49.684C17.6551 50.2972 20.7266 50.0163 23.5221 48.8771C26.3177 47.7379 28.7107 45.7921 30.396 43.2876C32.0814 40.7831 32.9828 37.8335 32.9853 34.8147V18.0465ZM35.9406 9.76277C34.2486 7.91434 33.2103 5.56147 32.9853 3.06568V2H30.7041C30.9843 3.5886 31.5953 5.10058 32.4974 6.43788C33.3995 7.77519 34.5726 8.90797 35.9406 9.76277ZM12.2335 38.9957C11.3412 37.8199 10.8464 36.3905 10.8209 34.9147C10.7954 33.4389 11.2405 31.9932 12.0918 30.7873C12.943 29.5814 14.1561 28.6779 15.5553 28.2077C16.9544 27.7375 18.467 27.725 19.8737 28.1721V19.7727C19.0773 19.6632 18.2736 19.6166 17.47 19.6331V26.1701C15.8052 25.6416 14.0025 25.7594 12.4207 26.5C10.8389 27.2406 9.59397 28.5497 8.93377 30.1667C8.27357 31.7838 8.2465 33.5901 8.85797 35.2262C9.46943 36.8623 10.6746 38.2081 12.2335 38.9957Z" fill="#FF004F"/>
<path d="M30.578 16.0513C33.9191 18.4394 37.9246 19.7206 42.0315 19.7148V13.2458C39.6881 12.7469 37.5588 11.5294 35.9404 9.76277C34.5724 8.90797 33.3993 7.77519 32.4972 6.43788C31.5951 5.10058 30.9842 3.5886 30.704 2H24.7048V34.8147C24.6999 36.2674 24.2398 37.6821 23.3893 38.8598C22.5388 40.0374 21.3405 40.919 19.963 41.3804C18.5855 41.8418 17.0981 41.8599 15.7098 41.4322C14.3214 41.0044 13.1021 40.1524 12.2231 38.9957C10.6581 38.2106 9.44721 36.8637 8.83246 35.2243C8.21772 33.5849 8.24448 31.7739 8.9074 30.1534C9.57032 28.5329 10.8205 27.2223 12.408 26.4838C13.9955 25.7453 15.8033 25.6333 17.4698 26.1701V19.6331C14.5075 19.6932 11.6275 20.6184 9.18442 22.2947C6.74136 23.9711 4.84195 26.3254 3.72013 29.0677C2.59831 31.81 2.30307 34.8206 2.87076 37.7286C3.43846 40.6366 4.84431 43.315 6.91516 45.4341C9.20247 46.9677 11.8635 47.8511 14.6139 47.9897C17.3643 48.1284 20.1006 47.5172 22.5306 46.2215C24.9606 44.9257 26.9929 42.9941 28.4103 40.633C29.8277 38.2719 30.5769 35.57 30.578 32.8162V16.0513Z" fill="black"/>
<path d="M42.0315 13.2444V11.4978C39.8784 11.5023 37.7676 10.9005 35.9405 9.76134C37.557 11.5303 39.6871 12.7483 42.0315 13.2444ZM30.704 2.00879C30.6496 1.70236 30.6087 1.36189 30.5781 1.05546V0H22.3216V32.8147C22.3164 33.9988 22.0088 35.1618 21.4282 36.1937C20.8475 37.2256 20.0129 38.0921 19.0035 38.711C17.9941 39.3299 16.8433 39.6808 15.6603 39.7304C14.4773 39.78 13.3013 39.5266 12.2436 38.9943C13.1261 40.1406 14.3441 40.9831 15.728 41.4044C17.1119 41.8257 18.5928 41.8048 19.9642 41.3446C21.3357 40.8845 22.5295 40.008 23.3793 38.8372C24.229 37.6665 24.6924 36.2599 24.7049 34.8133V1.99857L30.704 2.00879ZM17.4699 19.6316V17.7693C16.7791 17.6769 16.0831 17.6303 15.3862 17.6297C12.1286 17.627 8.95656 18.672 6.33842 20.6103C3.72027 22.5486 1.79485 25.2775 0.846481 28.3939C-0.101889 31.5104 -0.0229289 34.8492 1.0717 37.9173C2.16633 40.9855 4.2186 43.6203 6.92544 45.4326C4.85459 43.3136 3.44874 40.6351 2.88105 37.7271C2.31335 34.8191 2.60859 31.8086 3.73041 29.0663C4.85223 26.324 6.75164 23.9697 9.19471 22.2933C11.6378 20.6169 14.5178 19.6917 17.4801 19.6316H17.4699Z" fill="#00F2EA"/>
<path d="M137.833 41.1273C139.266 41.1527 140.689 40.8926 142.02 40.362C143.35 39.8315 144.562 39.0412 145.584 38.0372C146.606 37.0333 147.418 35.8358 147.972 34.5147C148.526 33.1936 148.811 31.7754 148.811 30.3428C148.811 28.9102 148.526 27.492 147.972 26.1709C147.418 24.8498 146.606 23.6523 145.584 22.6484C144.562 21.6444 143.35 20.8541 142.02 20.3236C140.689 19.793 139.266 19.5329 137.833 19.5583H136.196C137.628 19.5329 139.051 19.793 140.382 20.3236C141.713 20.8541 142.924 21.6444 143.946 22.6484C144.968 23.6523 145.78 24.8498 146.334 26.1709C146.888 27.492 147.174 28.9102 147.174 30.3428C147.174 31.7754 146.888 33.1936 146.334 34.5147C145.78 35.8358 144.968 37.0333 143.946 38.0372C142.924 39.0412 141.713 39.8315 140.382 40.362C139.051 40.8926 137.628 41.1527 136.196 41.1273H137.833Z" fill="#FF004F"/>
<path d="M136.039 19.5583H134.402C132.969 19.5329 131.546 19.793 130.215 20.3236C128.885 20.8541 127.673 21.6444 126.651 22.6484C125.629 23.6523 124.817 24.8498 124.263 26.1709C123.709 27.492 123.424 28.9102 123.424 30.3428C123.424 31.7754 123.709 33.1936 124.263 34.5147C124.817 35.8358 125.629 37.0333 126.651 38.0372C127.673 39.0412 128.885 39.8315 130.215 40.362C131.546 40.8926 132.969 41.1527 134.402 41.1273H136.039C134.607 41.1527 133.184 40.8926 131.853 40.362C130.522 39.8315 129.311 39.0412 128.289 38.0372C127.267 37.0333 126.455 35.8358 125.901 34.5147C125.347 33.1936 125.061 31.7754 125.061 30.3428C125.061 28.9102 125.347 27.492 125.901 26.1709C126.455 24.8498 127.267 23.6523 128.289 22.6484C129.311 21.6444 130.522 20.8541 131.853 20.3236C133.184 19.793 134.607 19.5329 136.039 19.5583Z" fill="#00F2EA"/>
<path d="M53.3965 14.6863V20.1339H59.8008V40.9606H66.2051V20.3007H71.4177L73.2018 14.6863H53.3965ZM105.829 14.6863V20.1339H112.206V40.9606H118.611V20.3007H123.823L125.611 14.6863H105.829ZM74.4138 17.788C74.4091 17.1687 74.5885 16.562 74.9292 16.0448C75.2699 15.5276 75.7566 15.1233 76.3275 14.8832C76.8984 14.643 77.5277 14.5779 78.1357 14.6961C78.7436 14.8143 79.3027 15.1104 79.7421 15.5469C80.1815 15.9834 80.4813 16.5406 80.6034 17.1477C80.7256 17.7549 80.6646 18.3846 80.4282 18.9571C80.1919 19.5295 79.7908 20.0189 79.2758 20.363C78.7609 20.707 78.1553 20.8904 77.536 20.8897C77.1273 20.8911 76.7224 20.8119 76.3443 20.6568C75.9662 20.5016 75.6224 20.2735 75.3325 19.9855C75.0426 19.6975 74.8123 19.3552 74.6546 18.9781C74.497 18.6011 74.4152 18.1967 74.4138 17.788ZM74.4138 23.1062H80.6649V40.9776H74.4138V23.1062ZM83.3478 14.6863V40.9776H89.6023V34.1852L91.5362 32.4113L97.6443 41.1274H104.345L95.5402 28.4244L103.432 20.7399H95.8364L89.5853 26.9433V14.6863H83.3478ZM150.806 14.6863V40.9776H157.046V34.1852L158.98 32.4113L165.088 41.1274H171.789L163.001 28.4244L170.894 20.7399H163.301L157.046 26.9433V14.6863H150.806Z" fill="black"/>
<path d="M136.196 41.1273C137.629 41.1527 139.052 40.8926 140.382 40.362C141.713 39.8315 142.925 39.0412 143.947 38.0372C144.969 37.0333 145.78 35.8358 146.334 34.5147C146.889 33.1936 147.174 31.7754 147.174 30.3428C147.174 28.9102 146.889 27.492 146.334 26.1709C145.78 24.8498 144.969 23.6523 143.947 22.6484C142.925 21.6444 141.713 20.8541 140.382 20.3236C139.052 19.793 137.629 19.5329 136.196 19.5583H136.04C134.607 19.5329 133.184 19.793 131.853 20.3236C130.523 20.8541 129.311 21.6444 128.289 22.6484C127.267 23.6523 126.455 24.8498 125.901 26.1709C125.347 27.492 125.062 28.9102 125.062 30.3428C125.062 31.7754 125.347 33.1936 125.901 34.5147C126.455 35.8358 127.267 37.0333 128.289 38.0372C129.311 39.0412 130.523 39.8315 131.853 40.362C133.184 40.8926 134.607 41.1527 136.04 41.1273H136.196ZM130.834 30.3445C130.825 29.297 131.128 28.2706 131.703 27.3953C132.279 26.52 133.101 25.8354 134.066 25.4284C135.031 25.0213 136.096 24.91 137.124 25.1087C138.153 25.3074 139.099 25.8072 139.843 26.5445C140.587 27.2819 141.095 28.2236 141.303 29.2502C141.511 30.2769 141.41 31.3422 141.011 32.311C140.613 33.2798 139.936 34.1085 139.066 34.6919C138.196 35.2752 137.172 35.5871 136.125 35.5878C135.433 35.5909 134.747 35.4578 134.107 35.196C133.467 34.9342 132.885 34.5488 132.393 34.062C131.902 33.5751 131.511 32.9962 131.244 32.3583C130.976 31.7205 130.837 31.0362 130.834 30.3445Z" fill="black"/>
</svg>
